HIERARCHY
ROOT Hips
{
	OFFSET 0.00000 0.00000 0.00000
	CHANNELS 6 Xposition Yposition Zposition Zrotation Yrotation Xrotation 
	JOINT LHipJoint
	{
		OFFSET 0 0 0
		CHANNELS 3 Zrotation Yrotation Xrotation
		JOINT LeftUpLeg
		{
			OFFSET 1.75344 -1.53157 0.77399
			CHANNELS 3 Zrotation Yrotation Xrotation
			JOINT LeftLeg
			{
				OFFSET 2.25415 -6.19323 0.00000
				CHANNELS 3 Zrotation Yrotation Xrotation
				JOINT LeftFoot
				{
					OFFSET 2.30342 -6.32861 0.00000
					CHANNELS 3 Zrotation Yrotation Xrotation
					JOINT LeftToeBase
					{
						OFFSET 0.10958 -0.30108 1.49206
						CHANNELS 3 Zrotation Yrotation Xrotation
						End Site
						{
							OFFSET 0.00000 -0.00000 0.77783
						}
					}
				}
			}
		}
	}
	JOINT RHipJoint
	{
		OFFSET 0 0 0
		CHANNELS 3 Zrotation Yrotation Xrotation
		JOINT RightUpLeg
		{
			OFFSET -1.81912 -1.53156 0.77399
			CHANNELS 3 Zrotation Yrotation Xrotation
			JOINT RightLeg
			{
				OFFSET -2.22882 -6.12365 0.00000
				CHANNELS 3 Zrotation Yrotation Xrotation
				JOINT RightFoot
				{
					OFFSET -2.21943 -6.09785 0.00000
					CHANNELS 3 Zrotation Yrotation Xrotation
					JOINT RightToeBase
					{
						OFFSET -0.18931 -0.52012 1.59379
						CHANNELS 3 Zrotation Yrotation Xrotation
						End Site
						{
							OFFSET -0.00000 -0.00000 0.84686
						}
					}
				}
			}
		}
	}
	JOINT LowerBack
	{
		OFFSET 0 0 0
		CHANNELS 3 Zrotation Yrotation Xrotation
		JOINT Spine
		{
			OFFSET -0.00200 1.66634 -0.14248
			CHANNELS 3 Zrotation Yrotation Xrotation
			JOINT Spine1
			{
				OFFSET -0.00875 1.64542 0.09514
				CHANNELS 3 Zrotation Yrotation Xrotation
				JOINT Neck
				{
					OFFSET 0 0 0
					CHANNELS 3 Zrotation Yrotation Xrotation
					JOINT Neck1
					{
						OFFSET 0.02257 1.59605 0.00839
						CHANNELS 3 Zrotation Yrotation Xrotation
						JOINT Head
						{
							OFFSET -0.10214 1.57530 -0.23335
							CHANNELS 3 Zrotation Yrotation Xrotation
							End Site
							{
								OFFSET -0.03588 1.60717 -0.08062
							}
						}
					}
				}
				JOINT LeftShoulder
				{
					OFFSET 0 0 0
					CHANNELS 3 Zrotation Yrotation Xrotation
					JOINT LeftArm
					{
						OFFSET 2.54983 1.10186 0.40078
						CHANNELS 3 Zrotation Yrotation Xrotation
						JOINT LeftForeArm
						{
							OFFSET 4.28840 -0.00000 0.00000
							CHANNELS 3 Zrotation Yrotation Xrotation
							JOINT LeftHand
							{
								OFFSET 3.06552 -0.00000 -0.00000
								CHANNELS 3 Zrotation Yrotation Xrotation
								JOINT LeftFingerBase
								{
									OFFSET 0 0 0
									CHANNELS 3 Zrotation Yrotation Xrotation
									JOINT LeftHandIndex1
									{
										OFFSET 0.75304 -0.00000 0.00000
										CHANNELS 3 Zrotation Yrotation Xrotation
										End Site
										{
											OFFSET 0.60712 -0.00000 0.00000
										}
									}
								}
								JOINT LThumb
								{
									OFFSET 0 0 0
									CHANNELS 3 Zrotation Yrotation Xrotation
									End Site
									{
										OFFSET 0.61639 -0.00000 0.61639
									}
								}
							}
						}
					}
				}
				JOINT RightShoulder
				{
					OFFSET 0 0 0
					CHANNELS 3 Zrotation Yrotation Xrotation
					JOINT RightArm
					{
						OFFSET -2.60909 1.35448 0.21802
						CHANNELS 3 Zrotation Yrotation Xrotation
						JOINT RightForeArm
						{
							OFFSET -4.52172 -0.00000 -0.00000
							CHANNELS 3 Zrotation Yrotation Xrotation
							JOINT RightHand
							{
								OFFSET -2.89140 -0.00000 0.00000
								CHANNELS 3 Zrotation Yrotation Xrotation
								JOINT RightFingerBase
								{
									OFFSET 0 0 0
									CHANNELS 3 Zrotation Yrotation Xrotation
									JOINT RightHandIndex1
									{
										OFFSET -0.68054 -0.00000 0.00000
										CHANNELS 3 Zrotation Yrotation Xrotation
										End Site
										{
											OFFSET -0.54867 -0.00000 0.00000
										}
									}
								}
								JOINT RThumb
								{
									OFFSET 0 0 0
									CHANNELS 3 Zrotation Yrotation Xrotation
									End Site
									{
										OFFSET -0.55705 -0.00000 0.55705
									}
								}
							}
						}
					}
				}
			}
		}
	}
}
MOTION
Frames: 15
Frame Time: .0083333
7.8383 15.3773 -32.9696 -187.2400 -60.0308 188.4110 0.0000 0.0000 0.0000 -27.8146 -16.6751 0.1782 1.2268 7.0249 19.7890 1.0034 3.6883 -20.5927 6.6234 -15.0064 -47.4353 0.0000 0.0000 0.0000 11.8845 15.3832 -16.2173 -5.8897 -14.3206 44.5374 -1.3473 -7.1853 -25.5877 -0.6254 5.0605 -14.0813 -2.3184 0.0068 7.6874 -0.5318 -0.3329 -4.0427 0.7925 -0.0620 -8.5897 -8.9293 -7.0124 -2.1764 6.2067 -9.1782 -0.7605 3.3800 -4.5566 0.8992 0.0000 0.0000 0.0000 -87.0273 3.0132 43.3810 22.5597 -33.6038 -6.8930 -0.0000 -0.0000 13.6382 7.9108 -35.2602 -4.5863 -7.1250 0.0000 -0.0000 -13.6281 -4.6589 15.1090 0.0000 0.0000 0.0000 88.1417 -15.1114 15.7437 -15.8658 25.3384 -3.5883 0.0000 0.0000 26.8799 3.8544 -53.1739 -3.0869 7.1250 -0.0000 -0.0000 75.2012 -70.0560 -53.8560
7.8401 15.3631 -33.0264 -187.8000 -61.8250 189.1620 0.0000 0.0000 0.0000 -27.5570 -17.2044 -0.1021 1.2601 7.1161 20.0597 1.0362 2.7475 -20.4027 6.8744 -15.2252 -48.3977 0.0000 0.0000 0.0000 11.4458 16.6797 -15.4052 -5.5560 -13.9838 43.1726 -1.3684 -6.4510 -25.2738 -0.9941 6.3454 -17.7899 -2.4344 -0.0492 7.6545 -0.4005 -0.4129 -4.1496 1.0087 -0.0884 -8.6828 -7.9342 -5.8473 -2.6432 5.1035 -7.6020 -0.6031 2.8622 -3.7694 0.8052 0.0000 0.0000 0.0000 -87.1783 3.0094 43.5010 22.4728 -33.5073 -6.8450 -0.0000 -0.0000 13.9948 7.4978 -35.3202 -4.3514 -7.1250 0.0000 -0.0000 -13.8537 -4.6631 15.3748 0.0000 0.0000 0.0000 88.0710 -15.6093 15.9854 -16.0314 25.5632 -3.6595 0.0000 0.0000 25.7513 4.1618 -52.9069 -3.3218 7.1250 -0.0000 -0.0000 74.6754 -69.8730 -53.1322
7.8367 15.3578 -33.0811 -188.3150 -63.6321 189.8450 0.0000 0.0000 0.0000 -27.2409 -17.5839 -0.4298 1.2958 7.2122 20.3456 1.0760 1.6616 -20.2623 7.2473 -15.5367 -49.8036 0.0000 0.0000 0.0000 11.0283 17.9907 -14.5518 -5.2415 -13.6507 41.8557 -1.4743 -4.8768 -25.1466 -0.8756 5.9656 -16.6848 -2.4049 -0.1292 7.6051 -0.3216 -0.5123 -4.2513 1.0906 -0.1348 -8.7602 -7.1302 -4.6524 -3.2275 4.3882 -5.9896 -0.2243 2.5061 -2.9649 0.8594 0.0000 0.0000 0.0000 -87.1642 3.0204 43.6864 22.5123 -33.5511 -6.8668 -0.0000 -0.0000 14.2906 6.8148 -35.1075 -3.9317 -7.1250 0.0000 -0.0000 -14.2053 -4.3710 15.7221 0.0000 0.0000 0.0000 88.0845 -16.1164 16.1734 -16.2455 25.8525 -3.7524 0.0000 0.0000 24.4451 4.2537 -52.6307 -3.3829 7.1250 -0.0000 -0.0000 74.0165 -69.7578 -52.3709
7.8303 15.3640 -33.1335 -188.7810 -65.4925 190.5200 0.0000 0.0000 0.0000 -26.8378 -17.9927 -0.8323 1.3354 7.3173 20.6589 1.1303 0.1628 -20.1643 7.4732 -15.7178 -50.6422 0.0000 0.0000 0.0000 10.7275 19.1213 -13.7904 -4.9478 -13.3248 40.5968 -1.5725 -3.2691 -25.0561 -0.7705 5.6051 -15.6428 -2.1854 -0.2332 7.5263 -0.3316 -0.6295 -4.3563 0.9740 -0.2046 -8.8252 -6.3089 -3.4268 -3.9050 3.8093 -4.3421 0.1667 2.1964 -2.1429 0.9610 0.0000 0.0000 0.0000 -86.6525 3.3214 44.5489 22.9712 -34.0573 -7.1222 -0.0000 -0.0000 13.6220 6.5856 -34.4251 -3.7342 -7.1250 0.0000 -0.0000 -14.2868 -3.6837 15.6571 0.0000 0.0000 0.0000 88.2356 -16.5685 16.1458 -16.4741 26.1593 -3.8526 0.0000 0.0000 23.2922 5.0390 -52.0997 -3.9801 7.1250 -0.0000 -0.0000 73.1371 -69.3217 -51.0058
7.8236 15.3622 -33.1851 -189.2720 -67.2433 191.1830 0.0000 0.0000 0.0000 -26.4620 -18.3810 -1.2291 1.3793 7.4317 21.0009 1.1617 -1.0225 -20.0646 7.7200 -15.9094 -51.5477 0.0000 0.0000 0.0000 10.5459 19.9660 -13.1438 -4.6721 -13.0047 39.3861 -1.5749 -2.7131 -24.8164 -1.2677 7.1366 -20.1208 -1.9534 -0.2789 7.4661 -0.3430 -0.6668 -4.4399 0.8371 -0.2366 -8.8814 -5.3094 -2.1207 -4.5284 3.1619 -2.6084 0.5521 1.8430 -1.2800 1.0666 -0.0000 -0.0000 0.0000 -86.3682 3.3096 44.9350 22.6729 -33.7292 -6.9558 -0.0000 -0.0000 12.9438 7.4541 -35.2559 -4.3190 -7.1250 0.0000 -0.0000 -13.8727 -4.5952 15.3819 -0.0000 -0.0000 0.0000 88.4368 -16.9682 15.7997 -16.6493 26.3931 -3.9302 0.0000 0.0000 22.5227 5.5275 -51.2002 -4.3131 7.1250 -0.0000 -0.0000 71.2511 -68.8454 -48.6774
7.8182 15.3512 -33.2400 -189.6930 -68.9572 191.6620 0.0000 0.0000 0.0000 -26.0653 -18.7627 -1.4989 1.4301 7.5615 21.3899 1.1912 -2.0810 -20.0473 7.9532 -16.0847 -52.3939 0.0000 0.0000 0.0000 10.4929 20.7392 -12.3467 -4.4175 -12.6961 38.2414 -1.5914 -2.3321 -24.7712 -1.8130 8.4652 -24.1364 -1.6928 -0.2652 7.4999 -0.3092 -0.6159 -4.4587 0.7193 -0.2254 -8.9245 -4.2467 -0.8987 -4.7940 2.3106 -1.0108 0.6100 1.4185 -0.4897 1.0380 -0.0000 0.0000 0.0000 -86.0800 3.4844 45.3499 22.7644 -33.8302 -7.0067 -0.0000 -0.0000 12.3626 7.7214 -36.2919 -4.5883 -7.1250 0.0000 -0.0000 -13.8056 -5.6320 15.5320 -0.0000 0.0000 0.0000 88.6191 -17.2628 15.2295 -16.7753 26.5606 -3.9864 0.0000 0.0000 21.8660 5.1818 -50.4271 -3.9986 7.1250 -0.0000 -0.0000 69.2055 -68.6688 -46.6207
7.8138 15.3389 -33.2993 -190.4480 -70.7696 192.4190 0.0000 0.0000 0.0000 -25.7057 -19.1213 -1.7929 1.4926 7.7179 21.8604 1.2295 -3.4381 -20.1048 8.1443 -16.2244 -53.0809 0.0000 0.0000 0.0000 10.4173 21.5316 -11.3695 -4.1888 -12.4074 37.1890 -1.6783 -1.4019 -25.0287 -1.8912 8.6358 -24.6625 -1.4903 -0.3075 7.5642 -0.3315 -0.6508 -4.4422 0.5874 -0.2546 -8.9453 -2.8811 0.3928 -4.9159 1.2335 0.6544 0.4610 0.8784 0.3310 0.9508 -0.0000 -0.0000 0.0000 -85.1987 3.8108 46.9626 23.5485 -34.6831 -7.4480 -0.0000 -0.0000 10.7427 7.5666 -35.9365 -4.4578 -7.1250 0.0000 -0.0000 -13.8611 -5.2680 15.5180 -0.0000 -0.0000 0.0000 88.6860 -17.5082 15.3181 -16.8905 26.7132 -4.0380 0.0000 0.0000 20.6078 4.4311 -50.0982 -3.4021 7.1250 -0.0000 -0.0000 67.9286 -68.7868 -45.6431
7.8083 15.3337 -33.3564 -191.5580 -72.6173 193.5960 0.0000 0.0000 0.0000 -25.3665 -19.4570 -2.2367 1.5586 7.8788 22.3465 1.2639 -4.9372 -20.1958 8.3445 -16.3669 -53.7944 0.0000 0.0000 0.0000 10.2449 22.2145 -10.4997 -3.9825 -12.1371 36.2187 -1.8070 0.6527 -25.2452 -1.4754 7.6752 -21.7318 -1.3560 -0.4146 7.4852 -0.3679 -0.7788 -4.3986 0.4917 -0.3265 -8.8505 -1.6252 1.8301 -5.2121 0.5473 2.5131 0.5543 0.4985 1.2522 1.0095 -0.0000 -0.0000 0.0000 -84.8054 3.7635 47.0028 23.5956 -34.7337 -7.4749 -0.0000 -0.0000 10.4876 7.8497 -36.0656 -4.6402 -7.1250 0.0000 -0.0000 -13.7203 -5.4302 15.3866 -0.0000 -0.0000 0.0000 88.5062 -17.7184 16.1601 -17.0493 26.9227 -4.1096 0.0000 0.0000 19.0072 3.9686 -49.9273 -3.0389 7.1250 -0.0000 -0.0000 67.2122 -68.8708 -45.1217
7.8056 15.3318 -33.4123 -192.3970 -74.4772 194.5010 0.0000 0.0000 0.0000 -24.9475 -20.2372 -2.4136 1.6149 8.0132 22.7542 1.2881 -6.1020 -20.3098 8.3834 -16.3941 -53.9322 0.0000 0.0000 0.0000 10.2912 22.9287 -9.5903 -3.8123 -11.9064 35.4017 -1.8178 1.9896 -24.9540 -1.3845 7.4450 -21.0407 -1.1755 -0.4140 7.3634 -0.2338 -0.7397 -4.2947 0.5243 -0.3138 -8.6664 -0.8402 3.2286 -5.3971 -0.1004 4.3413 0.5603 0.2154 2.1564 1.0515 -0.0000 -0.0000 0.0000 -84.5246 3.5678 47.4944 23.6911 -34.8359 -7.5294 -0.0000 -0.0000 9.8437 8.2285 -35.9412 -4.8516 -7.1250 0.0000 -0.0000 -13.5095 -5.3607 15.1218 -0.0000 -0.0000 0.0000 88.2551 -17.7553 16.0349 -17.1825 27.0977 -4.1701 0.0000 0.0000 18.2316 3.2497 -49.8433 -2.4848 7.1250 -0.0000 -0.0000 66.5146 -69.0757 -44.7687
7.7857 15.3260 -33.4675 -192.7670 -75.9508 194.8870 0.0000 0.0000 0.0000 -24.6947 -21.4362 -2.0256 1.6662 8.1332 23.1193 1.2391 -7.4639 -19.8927 7.4275 -15.6816 -50.4732 0.0000 0.0000 0.0000 10.5459 23.7874 -8.4873 -3.6734 -11.7126 34.7227 -1.7676 1.7699 -24.6523 -1.9864 8.8377 -25.2890 -0.9521 -0.3499 7.0170 -0.1091 -0.6081 -4.0800 0.5070 -0.2599 -8.2333 0.2619 4.6964 -5.7306 -0.8591 6.2408 0.6182 -0.1387 3.0934 1.1800 0.0000 0.0000 0.0000 -83.8633 3.5367 48.5626 24.2655 -35.4438 -7.8600 -0.0000 -0.0000 8.2708 8.6100 -35.2282 -4.9916 -7.1250 0.0000 -0.0000 -13.2504 -4.7214 14.6804 0.0000 0.0000 0.0000 88.0005 -17.6483 16.0573 -17.2466 27.1817 -4.1994 0.0000 0.0000 17.6032 2.1119 -49.9293 -1.6164 7.1250 -0.0000 -0.0000 65.9296 -69.4951 -44.7745
7.7890 15.3175 -33.5290 -195.0790 -77.8158 197.1390 0.0000 0.0000 0.0000 -24.5458 -22.2901 -2.0648 1.7157 8.2469 23.4664 1.1792 -8.8200 -19.4762 7.0619 -15.3838 -49.1079 0.0000 0.0000 0.0000 10.5574 24.2069 -7.5180 -3.5575 -11.5470 34.1477 -1.7829 1.9121 -24.7251 -2.2068 9.2842 -26.6883 -1.0637 -0.4875 7.1759 -0.1205 -0.8008 -3.8989 0.5849 -0.3473 -8.1266 1.8703 6.1870 -6.1572 -1.9377 8.1335 0.6105 -0.6592 4.0196 1.3843 0.0000 -0.0000 0.0000 -83.6012 3.1654 48.1367 24.2694 -35.4478 -7.8622 -0.0000 -0.0000 8.2660 8.8839 -35.5169 -5.1885 -7.1250 0.0000 -0.0000 -13.1261 -5.0389 14.6022 0.0000 -0.0000 0.0000 87.7606 -17.2779 16.2600 -17.1340 27.0341 -4.1480 0.0000 0.0000 16.9855 1.2975 -49.8884 -0.9924 7.1250 -0.0000 -0.0000 65.2622 -69.7535 -44.5103
7.8191 15.3105 -33.5958 -198.7330 -80.0180 200.7120 0.0000 0.0000 0.0000 -24.1221 -22.8095 -2.5885 1.7635 8.3551 23.7978 1.0762 -10.4456 -18.8424 7.0773 -15.3967 -49.1662 0.0000 0.0000 0.0000 10.6955 24.4661 -6.6425 -3.4646 -11.4117 33.6813 -1.8267 2.4024 -24.9185 -1.9925 8.8505 -25.3288 -0.8158 -0.3337 7.5452 -0.1258 -0.5748 -4.0699 0.4122 -0.2484 -8.5336 2.4911 7.1447 -4.8167 -2.7619 9.4071 -0.0672 -1.0303 4.6550 1.0408 0.0000 -0.0000 0.0000 -83.8877 3.0958 48.0437 23.8174 -34.9706 -7.6017 -0.0000 -0.0000 9.4137 8.8648 -36.3502 -5.2817 -7.1250 0.0000 -0.0000 -13.2048 -5.8445 14.8631 0.0000 -0.0000 0.0000 87.7213 -17.6634 14.5012 -16.9356 26.7728 -4.0583 0.0000 0.0000 17.2549 0.4408 -49.3845 -0.3346 7.1250 -0.0000 -0.0000 63.4251 -69.8231 -43.0231
7.8185 15.3122 -33.6584 -201.9640 -81.7358 203.8390 0.0000 0.0000 0.0000 -23.7856 -23.3404 -2.6993 1.8073 8.4526 24.0976 0.9539 -12.0965 -18.1896 6.5659 -14.9552 -47.2128 0.0000 0.0000 0.0000 11.0847 24.8422 -5.5678 -3.3935 -11.3064 33.3202 -1.8745 2.9369 -25.1348 -1.7593 8.3455 -23.7686 -0.5515 -0.2404 7.5434 -0.1262 -0.4140 -3.8575 0.2385 -0.1842 -8.3061 3.5349 8.4176 -4.4726 -3.6789 11.0626 -0.5468 -1.4524 5.4728 0.9983 -0.0000 -0.0000 0.0000 -83.3548 2.6377 48.6220 23.8771 -35.0340 -7.6359 -0.0000 -0.0000 9.0141 8.9793 -36.1699 -5.3278 -7.1250 0.0000 -0.0000 -13.1289 -5.6857 14.7403 -0.0000 -0.0000 0.0000 87.6608 -17.4936 13.5616 -16.8610 26.6741 -4.0247 0.0000 0.0000 17.6461 -0.5433 -49.0000 0.4100 7.1250 -0.0000 -0.0000 61.7730 -69.9813 -41.8175
7.8179 15.3147 -33.7247 -207.6520 -83.3049 209.4070 0.0000 0.0000 0.0000 -23.5851 -23.7465 -2.8756 1.8538 8.5548 24.4122 0.8034 -13.8703 -17.4885 5.8854 -14.3163 -44.5200 0.0000 0.0000 0.0000 11.3724 24.9720 -4.5829 -3.3370 -11.2216 33.0308 -1.8858 3.4233 -25.1156 -1.5595 7.8809 -22.3529 -0.6405 -0.1687 7.6304 -0.1287 -0.3241 -3.6884 0.2726 -0.1348 -8.1746 5.6658 9.7584 -4.5776 -5.0988 12.7699 -0.4697 -2.1679 6.3045 1.3675 0.0000 -0.0000 0.0000 -82.8619 2.2259 48.6774 23.9456 -35.1067 -7.6753 -0.0000 -0.0000 8.8255 9.1290 -35.9437 -5.3885 -7.1250 0.0000 -0.0000 -13.0302 -5.4874 14.5829 0.0000 -0.0000 0.0000 87.5766 -17.4770 13.0639 -16.9362 26.7736 -4.0585 0.0000 0.0000 17.8629 -1.4527 -48.9610 1.0958 7.1250 -0.0000 -0.0000 61.0001 -70.2734 -41.5096
7.8247 15.3115 -33.7953 -217.4560 -84.9175 219.1300 0.0000 0.0000 0.0000 -23.2361 -24.0270 -3.2570 1.9071 8.6698 24.7677 0.6002 -15.7716 -16.5810 5.1946 -13.5997 -41.6570 0.0000 0.0000 0.0000 11.7117 24.7487 -3.6959 -3.2713 -11.1218 32.6918 -1.8606 3.7250 -24.8843 -1.3934 7.4680 -21.1095 -0.6843 -0.0544 7.8705 -0.2055 -0.1805 -3.5780 0.1954 -0.0637 -8.1972 7.3464 10.8768 -4.2817 -6.3378 14.2248 -0.6090 -2.7836 7.0189 1.5994 0.0000 0.0000 0.0000 -82.3709 1.7413 48.7000 23.7909 -34.9424 -7.5865 -0.0000 -0.0000 8.8554 9.2596 -36.3118 -5.5145 -7.1250 0.0000 -0.0000 -12.9922 -5.8630 14.6151 0.0000 0.0000 0.0000 87.7526 -17.3987 12.2863 -16.8841 26.7047 -4.0351 0.0000 0.0000 18.1531 -2.7555 -49.1008 2.0834 7.1250 -0.0000 -0.0000 60.3772 -70.7886 -41.5776
